<svg height="140" viewBox="0 0 740 1008" fill="none" xmlns="http://www.w3.org/2000/svg">
<path d="M327.147 864.37H335.103V973H328.677L327.606 966.268H327.3C325.158 968.614 322.455 970.552 319.191 972.082C315.927 973.51 311.694 974.224 306.492 974.224C302.616 974.224 298.791 973.51 295.017 972.082C291.345 970.552 287.979 968.257 284.919 965.197C281.961 962.137 279.564 958.312 277.728 953.722C275.892 949.03 274.974 943.522 274.974 937.198C274.974 931.588 275.688 926.488 277.116 921.898C278.646 917.308 280.839 913.432 283.695 910.27C286.551 907.006 289.968 904.507 293.946 902.773C298.026 901.039 302.616 900.172 307.716 900.172C315.468 900.172 321.945 902.467 327.147 907.057V864.37ZM327.147 915.166C325.107 912.514 322.404 910.423 319.038 908.893C315.672 907.363 312.357 906.598 309.093 906.598C305.727 906.598 302.463 907.159 299.301 908.281C296.241 909.301 293.487 910.984 291.039 913.33C288.693 915.676 286.806 918.787 285.378 922.663C283.95 926.539 283.236 931.231 283.236 936.739C283.236 942.451 283.95 947.296 285.378 951.274C286.806 955.15 288.693 958.312 291.039 960.76C293.487 963.208 296.241 964.993 299.301 966.115C302.361 967.237 305.523 967.798 308.787 967.798C313.173 967.798 316.896 966.982 319.956 965.35C323.118 963.718 325.515 961.678 327.147 959.23V915.166ZM357.736 973V901.09H365.692V973H357.736ZM361.867 882.577C360.235 882.577 358.807 882.067 357.583 881.047C356.461 879.925 355.9 878.395 355.9 876.457C355.9 874.417 356.461 872.836 357.583 871.714C358.705 870.592 360.082 870.031 361.714 870.031C363.244 870.031 364.57 870.592 365.692 871.714C366.916 872.734 367.528 874.315 367.528 876.457C367.528 878.497 366.967 880.027 365.845 881.047C364.723 882.067 363.397 882.577 361.867 882.577ZM459.774 863.605C462.426 863.605 465.18 864.013 468.036 864.829C470.892 865.543 473.391 866.563 475.533 867.889L473.544 873.244C471.504 872.122 469.464 871.306 467.424 870.796C465.384 870.286 463.497 870.031 461.763 870.031C456.663 870.031 452.787 871.459 450.135 874.315C447.585 877.069 446.31 881.914 446.31 888.85V901.09H470.943V906.598H446.31V973H438.354V906.598H401.94V973H393.984V906.598H380.826V901.09H393.984V887.32C393.984 879.364 395.871 873.448 399.645 869.572C403.419 865.594 408.672 863.605 415.404 863.605C418.056 863.605 420.81 864.013 423.666 864.829C426.522 865.543 429.021 866.563 431.163 867.889L429.174 873.244C427.134 872.122 425.094 871.306 423.054 870.796C421.014 870.286 419.127 870.031 417.393 870.031C412.293 870.031 408.417 871.459 405.765 874.315C403.215 877.069 401.94 881.914 401.94 888.85V901.09H438.354V887.32C438.354 879.364 440.241 873.448 444.015 869.572C447.789 865.594 453.042 863.605 459.774 863.605Z" fill="#777"/>
<path d="M0 370C0 70 173 0 370 0C567 0 740 70 740 370C740 670 567 740 370 740C173 740 0 670 0 370Z" fill="#FAFA00"/>
<path d="M446.379 493.768V303.387C446.379 288.803 443.417 276.157 437.492 265.447C431.796 254.51 423.137 246.079 411.516 240.154C399.895 234.23 385.539 231.268 368.449 231.268C352.499 231.268 338.485 234.002 326.408 239.471C314.559 244.939 305.217 252.117 298.381 261.004C291.773 269.891 288.469 279.461 288.469 289.715H225.236C225.236 276.499 228.654 263.396 235.49 250.408C242.326 237.42 252.124 225.685 264.885 215.203C277.873 204.493 293.368 196.062 311.369 189.91C329.598 183.53 349.878 180.34 372.209 180.34C399.097 180.34 422.795 184.897 443.303 194.012C464.038 203.126 480.217 216.912 491.838 235.369C503.687 253.598 509.611 276.499 509.611 304.07V476.336C509.611 488.641 510.637 501.743 512.688 515.643C514.966 529.542 518.27 541.505 522.6 551.531L525 557H456.633C453.443 549.708 450.936 540.024 449.113 527.947C447.29 515.643 446.379 504.249 446.379 493.768ZM457.316 332.781L458 377.215H394.084C376.083 377.215 360.018 378.696 345.891 381.658C331.763 384.393 319.914 388.608 310.344 394.305C300.773 400.001 293.482 407.179 288.469 415.838C283.456 424.269 280.949 434.181 280.949 445.574C280.949 457.195 283.57 467.791 288.811 477.361C294.051 486.932 301.913 494.565 312.395 500.262C323.104 505.73 336.206 508.465 351.701 508.465C371.07 508.465 388.16 504.363 402.971 496.16C417.782 487.957 429.517 477.931 438.176 466.082C447.062 454.233 451.848 442.726 452.531 431.561L479.533 461.98C477.938 471.551 473.609 482.146 466.545 493.768C459.481 505.389 450.025 516.554 438.176 527.264C426.555 537.745 412.655 546.518 396.477 553.582C380.526 560.418 362.525 563.836 342.473 563.836C317.408 563.836 295.419 558.937 276.506 549.139C257.821 539.34 243.238 526.238 232.756 509.832C222.502 493.198 217.375 474.627 217.375 454.119C217.375 434.295 221.249 416.863 228.996 401.824C236.743 386.557 247.909 373.911 262.492 363.885C277.076 353.631 294.621 345.883 315.129 340.643C335.637 335.402 358.537 332.781 383.83 332.781H457.316Z" fill="white"/>
</svg>
