<svg height="140" viewBox="0 0 740 1008" fill="none" xmlns="http://www.w3.org/2000/svg">
<path d="M327.147 864.37H335.103V973H328.677L327.606 966.268H327.3C325.158 968.614 322.455 970.552 319.191 972.082C315.927 973.51 311.694 974.224 306.492 974.224C302.616 974.224 298.791 973.51 295.017 972.082C291.345 970.552 287.979 968.257 284.919 965.197C281.961 962.137 279.564 958.312 277.728 953.722C275.892 949.03 274.974 943.522 274.974 937.198C274.974 931.588 275.688 926.488 277.116 921.898C278.646 917.308 280.839 913.432 283.695 910.27C286.551 907.006 289.968 904.507 293.946 902.773C298.026 901.039 302.616 900.172 307.716 900.172C315.468 900.172 321.945 902.467 327.147 907.057V864.37ZM327.147 915.166C325.107 912.514 322.404 910.423 319.038 908.893C315.672 907.363 312.357 906.598 309.093 906.598C305.727 906.598 302.463 907.159 299.301 908.281C296.241 909.301 293.487 910.984 291.039 913.33C288.693 915.676 286.806 918.787 285.378 922.663C283.95 926.539 283.236 931.231 283.236 936.739C283.236 942.451 283.95 947.296 285.378 951.274C286.806 955.15 288.693 958.312 291.039 960.76C293.487 963.208 296.241 964.993 299.301 966.115C302.361 967.237 305.523 967.798 308.787 967.798C313.173 967.798 316.896 966.982 319.956 965.35C323.118 963.718 325.515 961.678 327.147 959.23V915.166ZM357.736 973V901.09H365.692V973H357.736ZM361.867 882.577C360.235 882.577 358.807 882.067 357.583 881.047C356.461 879.925 355.9 878.395 355.9 876.457C355.9 874.417 356.461 872.836 357.583 871.714C358.705 870.592 360.082 870.031 361.714 870.031C363.244 870.031 364.57 870.592 365.692 871.714C366.916 872.734 367.528 874.315 367.528 876.457C367.528 878.497 366.967 880.027 365.845 881.047C364.723 882.067 363.397 882.577 361.867 882.577ZM459.774 863.605C462.426 863.605 465.18 864.013 468.036 864.829C470.892 865.543 473.391 866.563 475.533 867.889L473.544 873.244C471.504 872.122 469.464 871.306 467.424 870.796C465.384 870.286 463.497 870.031 461.763 870.031C456.663 870.031 452.787 871.459 450.135 874.315C447.585 877.069 446.31 881.914 446.31 888.85V901.09H470.943V906.598H446.31V973H438.354V906.598H401.94V973H393.984V906.598H380.826V901.09H393.984V887.32C393.984 879.364 395.871 873.448 399.645 869.572C403.419 865.594 408.672 863.605 415.404 863.605C418.056 863.605 420.81 864.013 423.666 864.829C426.522 865.543 429.021 866.563 431.163 867.889L429.174 873.244C427.134 872.122 425.094 871.306 423.054 870.796C421.014 870.286 419.127 870.031 417.393 870.031C412.293 870.031 408.417 871.459 405.765 874.315C403.215 877.069 401.94 881.914 401.94 888.85V901.09H438.354V887.32C438.354 879.364 440.241 873.448 444.015 869.572C447.789 865.594 453.042 863.605 459.774 863.605Z" fill="#777"/>
<path d="M0 370C0 70 173 0 370 0C567 0 740 70 740 370C740 670 567 740 370 740C173 740 0 670 0 370Z" fill="#FAFA00"/>
<path d="M413.6 545.2C412.2 538.2 411.267 532.367 410.8 527.7C410.8 522.567 410.567 516.733 410.1 510.2C394.233 526.067 377.2 537.733 359 545.2C341.267 552.667 322.833 556.4 303.7 556.4C271.967 556.4 247.467 547.767 230.2 530.5C213.4 513.233 205 492 205 466.8C205 444.4 211.067 425.5 223.2 410.1C235.333 394.233 251.2 381.4 270.8 371.6C290.4 361.333 312.1 353.633 335.9 348.5C359.7 342.9 383.267 339.867 406.6 339.4V300.9C406.6 287.367 404.967 275 401.7 263.8C398.9 252.133 393.533 243.033 385.6 236.5C377.667 229.5 366 226 350.6 226C340.333 226.467 329.833 228.8 319.1 233C308.833 236.733 300.667 242.8 294.6 251.2C298.333 255.4 300.667 260.067 301.6 265.2C302.533 269.867 303 274.067 303 277.8C303 286.2 299.733 295.067 293.2 304.4C286.667 313.267 276.167 317.467 261.7 317C249.1 316.533 239.3 312.1 232.3 303.7C225.767 295.3 222.5 285.267 222.5 273.6C222.5 255.867 228.8 240.467 241.4 227.4C254.467 213.867 271.967 203.367 293.9 195.9C315.833 187.967 340.333 184 367.4 184C407.533 184 438.333 194.5 459.8 215.5C481.267 236.5 491.767 270.1 491.3 316.3C491.3 332.633 491.3 347.567 491.3 361.1C491.3 374.167 491.067 387.467 490.6 401C490.6 414.067 490.6 428.767 490.6 445.1C490.6 452.1 490.367 460.967 489.9 471.7C489.433 481.967 488.733 492.233 487.8 502.5C496.2 501.567 504.6 501.1 513 501.1C521.867 500.633 529.1 500.167 534.7 499.7V545.2H413.6ZM405.9 380.7C391.9 381.633 378.133 383.967 364.6 387.7C351.067 390.967 338.933 395.633 328.2 401.7C317.467 407.767 308.833 415.467 302.3 424.8C296.233 433.667 293.433 443.933 293.9 455.6C294.367 470.067 299.033 480.8 307.9 487.8C316.767 494.333 327.033 497.6 338.7 497.6C352.233 497.6 364.367 494.8 375.1 489.2C386.3 483.6 396.567 476.133 405.9 466.8C405.9 462.133 405.9 457.233 405.9 452.1C405.9 446.967 405.9 441.833 405.9 436.7C405.9 430.167 405.9 422 405.9 412.2C405.9 402.4 405.9 391.9 405.9 380.7Z" fill="white"/>
</svg>
